<?xml version="1.0" encoding="utf-8"?>
<!-- Generator: Adobe Illustrator 25.2.1, SVG Export Plug-In . SVG Version: 6.00 Build 0)  -->
<svg version="1.1" id="Camada_1" xmlns="http://www.w3.org/2000/svg" xmlns:xlink="http://www.w3.org/1999/xlink" x="0px" y="0px"
	 viewBox="0 0 401.93 403.49" style="enable-background:new 0 0 401.93 403.49;" xml:space="preserve">
<g>
	<path d="M402.71,94.38c0,71.84,0,143.67,0,215.51c-1.62,7.53-2.55,15.3-4.98,22.56c-14.27,42.71-51.81,69.94-97,70.1
		c-66.2,0.23-132.4,0.12-198.59,0.03c-21.53-0.03-41.49-5.76-59.01-18.46c-28.88-20.93-43.11-49.48-43.12-85.13
		C0.01,234.49-0.03,169.99,0.08,105.5c0.01-6.92,0.54-13.89,1.49-20.74C6.75,47.29,37.32,13.21,74.04,4c7.19-1.8,14.61-2.69,21.93-4
		c70,0,140,0,210,0c2.45,0.29,4.91,0.57,7.36,0.88c42.15,5.41,75.68,35,86.2,76.24C400.96,82.78,401.67,88.63,402.71,94.38z
		 M178.58,192.36c13-3.99,19.21-12.73,20.71-25.41c2.37-20.03-6.44-37.36-22.91-44.55c-7.46-3.26-15.4-4.07-23.42-4.1
		c-23.98-0.06-47.95-0.03-71.93-0.01c-1.38,0-2.76,0.14-4.05,0.21c0,55.53,0,110.59,0,165.67c0.88,0.1,1.4,0.22,1.92,0.22
		c25.29,0.01,50.58,0.35,75.85-0.12c13.42-0.25,25.7-4.82,35.71-14.2c12.68-11.87,15.56-27.23,14.27-43.56
		C203.1,205.68,196.54,197.45,178.58,192.36z M244.89,230.07c26.9,0,53.58,0,80.58,0c0.81-15.64-0.35-30.47-7.39-44.34
		c-7.07-13.92-18.36-22.56-33.69-24.9c-7.8-1.19-16-1.25-23.84-0.33c-17.64,2.07-31.11,11.16-39.6,26.91
		c-9.39,17.41-11.87,35.93-7.4,55.18c3.37,14.55,10.36,27.14,23.84,34.52c21.35,11.7,43.53,11.43,65.36,1.54
		c14.68-6.65,22.63-20.98,21.16-35.53c-8.83,0-17.67,0-26.76,0c-0.86,7.19-5.01,11.75-11.52,14.11c-2.8,1.01-5.8,1.62-8.77,2
		C257.21,261.73,244.07,250,244.89,230.07z M236.58,143.66c22.33,0,44.39,0,66.61,0c0-5.26,0-10.28,0-15.44
		c-22.33,0-44.39,0-66.61,0C236.58,133.51,236.58,138.55,236.58,143.66z"/>
	<path d="M111.89,252.29c0-14.99,0-29.51,0-44.59c1.52,0,2.9,0,4.28,0c11.79,0,23.58,0,35.37,0c11.14,0,16.79,4.14,19.39,14.91
		c1.56,6.45,1.29,13.06-1.13,19.32c-2.38,6.17-7.24,10.04-13.7,10.22C141.48,252.58,126.84,252.29,111.89,252.29z"/>
	<path d="M111.94,182.24c0-11.85,0-23.19,0-34.92c1.09-0.08,2.2-0.24,3.32-0.25c12.95-0.02,25.91-0.02,38.86-0.01
		c6.22,0.01,9.75,2.59,11.46,8.58c1.72,6.06,1.56,12.19-0.24,18.2c-1.82,6.07-5.11,8.28-12.52,8.35
		c-11.78,0.11-23.55,0.04-35.33,0.04C115.7,182.24,113.9,182.24,111.94,182.24z"/>
	<path d="M244.75,207.42c1.6-12.48,11.33-25.52,27.96-24.91c13.51,0.49,22.2,9.98,22.41,24.91
		C278.34,207.42,261.56,207.42,244.75,207.42z"/>
</g>
</svg>
