<?xml version="1.0" encoding="utf-8"?>
<!-- Generator: Adobe Illustrator 25.2.1, SVG Export Plug-In . SVG Version: 6.00 Build 0)  -->
<svg version="1.1" id="Camada_1" xmlns="http://www.w3.org/2000/svg" xmlns:xlink="http://www.w3.org/1999/xlink" x="0px" y="0px"
	 viewBox="0 0 512 512" style="enable-background:new 0 0 512 512;" xml:space="preserve">
<g>
	<path d="M179.79,1.12c50.8,0,101.61,0,152.41,0c2.95,0.27,5.91,0.55,8.86,0.81c19.14,1.73,38.62,1.75,57.35,5.52
		c49.6,9.97,84.14,38.77,101.58,86.87c8.43,23.26,10.39,47.57,10.46,72.04c0.18,58.44,0.45,116.88-0.17,175.31
		c-0.19,18.5-1.48,37.28-5.01,55.39c-9.54,48.83-37.45,83.36-84.29,101.61c-22.59,8.8-46.4,11.14-70.37,11.38
		c-53.78,0.54-107.57,1.04-161.35,0.75c-26.5-0.14-53.14-0.25-79.2-6.57c-42.21-10.24-73.56-34.17-92.21-73.7
		C6.39,406.21,2.88,380.04,2.6,353.49c-0.58-55.11-1.2-110.23-0.75-165.33c0.19-23.16,1.58-46.52,4.97-69.41
		c5.27-35.68,22.46-65.3,51.65-87.2c25.01-18.77,53.98-26.23,84.61-28.4C155.3,2.28,167.55,1.78,179.79,1.12z M256.6,466.08
		c0.01-0.26,0.01-0.52,0.02-0.79c13.45,0,26.91,0.4,40.34-0.08c28.84-1.03,57.87-0.77,86.43-4.26c37.68-4.6,63.48-25.93,74.88-62.98
		c5.23-16.99,6.12-34.62,6.32-52.21c0.52-45.15,1.17-90.31,0.77-135.45c-0.24-26.85-0.92-53.84-3.98-80.48
		c-4.71-40.96-30.68-68.75-71.03-76.78c-17.6-3.5-35.89-4.54-53.9-4.84c-44.48-0.75-88.98-0.61-133.46-0.46
		c-25.54,0.09-51.15-0.25-76.46,4.2c-38.68,6.79-65.21,31.32-73.11,69.81c-3.41,16.61-4.54,33.88-4.9,50.89
		c-0.87,40.99-1.19,82.01-0.74,123.01c0.32,28.68,1.15,57.44,3.82,85.98c2.48,26.5,14.61,48.79,37.13,64.27
		c17.38,11.95,37.26,16.53,57.87,17.31C183.25,464.62,219.93,465.18,256.6,466.08z"/>
	<path d="M125.4,256.31c-0.25-72.13,58.69-131.09,131.04-131.09c72.26-0.01,130.49,58.05,130.98,130.58
		c0.49,72.08-58.28,131.16-130.71,131.42C184.54,387.47,125.64,328.75,125.4,256.31z M256.17,341.06
		c47.05,0.13,84.94-37.46,85.16-84.48c0.22-47.01-37.37-85.01-84.36-85.29c-47.21-0.28-85.31,37.51-85.41,84.74
		C171.45,303.02,209.18,340.93,256.17,341.06z"/>
	<path d="M393.33,89.53c17.11,0.34,30.21,14.16,29.77,31.4c-0.43,16.8-14.2,29.89-31.14,29.61c-16.84-0.27-30.23-14.4-29.85-31.49
		C362.47,102.36,376.41,89.19,393.33,89.53z"/>
</g>
</svg>
