<?xml version="1.0" encoding="utf-8"?>
<!-- Generator: Adobe Illustrator 25.2.1, SVG Export Plug-In . SVG Version: 6.00 Build 0)  -->
<svg version="1.1" id="Camada_1" xmlns="http://www.w3.org/2000/svg" xmlns:xlink="http://www.w3.org/1999/xlink" x="0px" y="0px"
	 viewBox="0 0 512 512" style="enable-background:new 0 0 512 512;" xml:space="preserve">
<g>
	<path d="M512,104c-1.1,1.17-2.34,2.24-3.29,3.52c-13.93,18.91-27.49,38.11-41.85,56.69c-9.84,12.73-13.41,26.63-12.58,42.45
		c1.6,30.46-1.2,60.59-9.18,90.09c-18.43,68.07-60.42,115.94-124.73,144.36c-33.28,14.7-68.36,21.77-104.54,24.03
		c-35.44,2.22-70.62,0.27-105.36-7.13c-29.2-6.23-56.2-18.41-82.42-32.39c-9.08-4.84-18.06-9.89-27.37-15
		c39.03-13.56,77.6-26.95,116.16-40.34c0.05-0.61,0.09-1.21,0.14-1.82c-37.29-18.41-54.86-50.85-64.24-89.35
		c1.28-0.09,2.66-0.19,4.86-0.34c-15.37-16.38-25.33-34.86-29.98-56.19c-3.22-14.76-1.68-29.48-0.38-44.83
		c3.59,1.23,6.94,2.37,11.55,3.95c-10.32-21.63-14.49-43.24-11.86-66.11c2.62-22.79,12.8-42.44,24.69-62.65
		c45.9,61.43,104.78,101.07,181.1,111.68c0-5.71-0.12-11.3,0.02-16.89c1-40.4,20.54-69.71,55.98-87.27
		c42.05-20.83,83.94-18.75,122.93,8.37c8.06,5.6,14.11,6.51,22.72,3.23c18.17-6.94,36.66-13.06,55.02-19.52
		c1.69-0.6,3.39-1.19,6.42-2.25c-6.46,18.54-12.54,35.98-18.9,54.25C488.96,104,500.48,103.5,512,103C512,103.33,512,103.67,512,104
		z M218.62,353.93c-45.73,22.61-91.2,45.62-141.12,62.14c5.45,2.08,9.3,3.57,13.16,5.02c26.04,9.79,53.27,13.04,80.78,14.42
		c49.39,2.47,97.46-3.35,142.75-24.56c44.25-20.73,76.41-53.3,94.53-99.01c13.3-33.54,17.45-68.62,15.62-104.41
		c-1.17-22.77,3.93-43.23,18.54-61.03c2.47-3.01,4.63-6.28,7.59-10.33c-6.02,0-10.9,0-16.35,0c4.28-12.36,8.32-24.04,12.61-36.42
		c-6.95,2-12.95,3.86-19.01,5.43c-8.38,2.18-16.2,0.83-23.19-4.4c-3.33-2.49-6.41-5.33-9.83-7.69
		c-25.63-17.69-53.11-20.26-82.3-10.3c-37.39,12.76-56.22,46.32-47.64,84.72c2.2,9.82,3.14,19.92,4.71,30.23
		c-82.42-2.24-152.63-30.9-210.45-90.06c-3.65,13.78-3.83,26.76-0.76,39.74c4.43,18.75,14.08,34.47,28.85,46.77
		c12.92,10.76,26.32,20.96,39.49,31.42c1.38,1.09,2.7,2.26,4.05,3.39c-0.13,0.29-0.26,0.59-0.39,0.88
		c-23.84-2.55-47.68-5.1-71.5-7.65c3.84,20.52,23.08,43.87,45.13,52.61c12.14,4.81,25.07,7.67,37.73,11.1
		c10.55,2.86,21.21,5.29,31.83,7.9c0.01,0.4,0.02,0.8,0.03,1.2c-24.74,6.53-49.48,13.07-74.21,19.6c0.07,0.11,0.54,0.97,1.11,1.75
		c14.97,20.5,35.41,31.36,60.43,33.54C180.05,351.61,199.35,352.62,218.62,353.93z"/>
</g>
</svg>
