<?xml version="1.0" encoding="utf-8"?>
<!-- Generator: Adobe Illustrator 25.2.1, SVG Export Plug-In . SVG Version: 6.00 Build 0)  -->
<svg version="1.1" id="Camada_1" xmlns="http://www.w3.org/2000/svg" xmlns:xlink="http://www.w3.org/1999/xlink" x="0px" y="0px"
	 viewBox="0 0 512 512" style="enable-background:new 0 0 512 512;" xml:space="preserve">
<g>
	<path d="M255.42,450.17c-55.34,0-110.68,0.07-166.03-0.02c-43.53-0.07-79.06-29.05-87.68-71.56c-1.16-5.72-1.6-11.67-1.61-17.52
		c-0.11-70.05-0.14-140.1-0.05-210.15c0.07-49.9,38.98-89,88.79-89.04c111.42-0.11,222.84-0.11,334.26,0
		c49.58,0.05,88.67,39.01,88.78,88.49c0.16,70.42,0.16,140.84,0,211.26c-0.11,49.47-39.19,88.39-88.78,88.51
		C367.21,450.28,311.31,450.17,255.42,450.17z M255.97,414.87c54.78,0,109.56,0.01,164.34,0c33.89-0.01,56.3-22.39,56.31-56.28
		c0.02-68.38,0.02-136.77,0-205.15c-0.01-33.9-22.39-56.29-56.28-56.29c-109.56-0.01-219.12-0.01-328.69,0
		c-33.9,0-56.3,22.39-56.31,56.27c-0.01,68.38-0.01,136.77,0,205.15c0.01,33.88,22.41,56.29,56.29,56.3
		C146.4,414.88,201.19,414.87,255.97,414.87z"/>
	<path d="M166.18,255.91c0-20.22-0.08-40.44,0.01-60.66c0.17-37.34,35.7-57.85,68.15-39.26c35.05,20.08,70.04,40.26,104.96,60.56
		c32.34,18.8,32.47,59.95,0.2,78.76c-35.37,20.62-70.86,41.05-106.4,61.37c-30.9,17.67-66.49-2.8-66.88-38.46
		C166,297.46,166.19,276.69,166.18,255.91z M201.48,255.86c0,19.83-0.03,39.67,0.01,59.5c0.02,11.79,6.07,15.33,16.15,9.53
		c12.4-7.14,24.8-14.27,37.19-21.42c22.4-12.92,44.84-25.79,67.19-38.81c8.26-4.81,8.25-12.19,0.21-17.17
		c-0.94-0.58-1.91-1.1-2.86-1.65c-33.84-19.53-67.68-39.06-101.52-58.58c-10.44-6.03-16.34-2.56-16.36,9.67
		C201.46,216.57,201.48,236.21,201.48,255.86z"/>
</g>
</svg>
